<svg xmlns="http://www.w3.org/2000/svg" viewBox="-45.8221 -209.1 32.92 29.56">
  <path d="M -16.525 -208.462 L -23.705 -190.112 L -23.708 -190.111 L -33.428 -208.553 A 0.838 0.838 180 0 0 -34.952 -208.46 L -38.342 -199.636 A 0.846 0.846 180 0 0 -38.302 -198.95 L -30.307 -183.605 A 6.698 6.698 180 0 0 -24.367 -180 L -19.767 -180 A 0.84 0.84 180 0 0 -19.027 -181.23 L -21 -186 L -17 -196 L -13 -207 A 6.698 6.698 180 0 0 -17 -208 L -13 -207 A 0.842 0.842 180 0 0 -13 -207 L -15 -208.554 A 0.839 0.839 180 0 0 -16 -206 Z M -42.392 -188.806 A 0.835 0.835 180 0 0 -42.779 -188.36 L -43 -188 L -45.67 -180.77 A 0.838 0.838 180 0 0 -44.885 -179.641 L -38.307 -179.641 A 0.837 0.837 180 0 0 -38 -180 L -35 -190 L -38.65 -196.76 C -38.87 -197.17 -39.379 -197.32 -39.785 -197.1 Z" fill="#000000"/>
</svg>